<svg xmlns="http://www.w3.org/2000/svg" width="256" height="256" viewBox="0 0 100 100"><rect width="100" height="100" rx="20" fill="#000000"></rect><path d="M-17.44 37.88L-17.44 37.88Q-16.80 37.56-15.88 37.32Q-14.96 37.08-13.84 37.08L-13.84 37.08Q-10.48 37.08-9.76 39.16L-9.76 39.16Q-8.32 43.48-7.04 47.32Q-5.76 51.16-4.56 54.72Q-3.36 58.28-2.24 61.72Q-1.12 65.16 0.00 68.84L0.00 68.84L0.32 68.84Q1.44 63.48 2.56 58.32Q3.68 53.16 4.72 47.92Q5.76 42.68 6.72 37.28Q7.68 31.88 8.56 25.88L8.56 25.88Q9.68 25.32 11.28 25.32L11.28 25.32Q12.80 25.32 13.68 26.00Q14.56 26.68 14.56 28.04L14.56 28.04Q14.56 29.56 14.12 32.68Q13.68 35.80 12.92 39.84Q12.16 43.88 11.16 48.56Q10.16 53.24 9.04 57.76Q7.92 62.28 6.80 66.44Q5.68 70.60 4.64 73.56L4.64 73.56Q3.92 73.96 2.80 74.32Q1.68 74.68 0.24 74.68L0.24 74.68Q-1.52 74.68-2.72 74.12Q-3.92 73.56-4.32 72.60L-4.32 72.60Q-5.20 70.52-6.32 67.36Q-7.44 64.20-8.68 60.40Q-9.92 56.60-11.20 52.48Q-12.48 48.36-13.68 44.28L-13.68 44.28Q-14.88 48.28-16.16 52.52Q-17.44 56.76-18.68 60.72Q-19.92 64.68-21.12 68.04Q-22.32 71.40-23.28 73.64L-23.28 73.64Q-23.92 74.04-25.04 74.36Q-26.16 74.68-27.60 74.68L-27.60 74.68Q-29.44 74.68-30.56 74.08Q-31.68 73.48-32.08 72.60L-32.08 72.60Q-32.80 70.92-33.72 67.80Q-34.64 64.68-35.64 60.72Q-36.64 56.76-37.72 52.20Q-38.80 47.64-39.80 43.12Q-40.80 38.60-41.64 34.40Q-42.48 30.20-43.04 26.84L-43.04 26.84Q-42.48 26.28-41.52 25.80Q-40.56 25.32-39.44 25.32L-39.44 25.32Q-36.64 25.32-36.08 28.28L-36.08 28.28Q-35.04 33.32-34.08 38.00Q-33.12 42.68-32.12 47.52Q-31.12 52.36-30.00 57.56Q-28.88 62.76-27.52 68.84L-27.52 68.84L-27.20 68.84Q-26.08 65.24-25.04 62.00Q-24.00 58.76-22.88 55.24Q-21.76 51.72-20.44 47.56Q-19.12 43.40-17.44 37.88ZM46.80 37.88L46.80 37.88Q47.44 37.56 48.36 37.32Q49.28 37.08 50.40 37.08L50.40 37.08Q53.76 37.08 54.48 39.16L54.48 39.16Q55.92 43.48 57.20 47.32Q58.48 51.16 59.68 54.72Q60.88 58.28 62.00 61.72Q63.12 65.16 64.24 68.84L64.24 68.84L64.56 68.84Q65.68 63.48 66.80 58.32Q67.92 53.16 68.96 47.92Q70 42.68 70.96 37.28Q71.92 31.88 72.80 25.88L72.80 25.88Q73.92 25.32 75.52 25.32L75.52 25.32Q77.04 25.32 77.92 26.00Q78.80 26.68 78.80 28.04L78.80 28.04Q78.80 29.56 78.36 32.68Q77.92 35.80 77.16 39.84Q76.40 43.88 75.40 48.56Q74.40 53.24 73.28 57.76Q72.16 62.28 71.04 66.44Q69.92 70.60 68.88 73.56L68.88 73.56Q68.16 73.96 67.04 74.32Q65.92 74.68 64.48 74.68L64.48 74.68Q62.72 74.68 61.52 74.12Q60.32 73.56 59.92 72.60L59.92 72.60Q59.04 70.52 57.92 67.36Q56.80 64.20 55.56 60.40Q54.32 56.60 53.04 52.48Q51.76 48.36 50.56 44.28L50.56 44.28Q49.36 48.28 48.08 52.52Q46.80 56.76 45.56 60.72Q44.32 64.68 43.12 68.04Q41.92 71.40 40.96 73.64L40.96 73.64Q40.32 74.04 39.20 74.36Q38.08 74.68 36.64 74.68L36.64 74.68Q34.80 74.68 33.68 74.08Q32.56 73.48 32.16 72.60L32.16 72.60Q31.44 70.92 30.52 67.80Q29.60 64.68 28.60 60.72Q27.60 56.76 26.52 52.20Q25.44 47.64 24.44 43.12Q23.44 38.60 22.60 34.40Q21.76 30.20 21.20 26.84L21.20 26.84Q21.76 26.28 22.72 25.80Q23.68 25.32 24.80 25.32L24.80 25.32Q27.60 25.32 28.16 28.28L28.16 28.28Q29.20 33.32 30.16 38.00Q31.12 42.68 32.12 47.52Q33.12 52.36 34.24 57.56Q35.36 62.76 36.72 68.84L36.72 68.84L37.04 68.84Q38.16 65.24 39.20 62.00Q40.24 58.76 41.36 55.24Q42.48 51.72 43.80 47.56Q45.12 43.40 46.80 37.88ZM111.04 37.88L111.04 37.88Q111.68 37.56 112.60 37.32Q113.52 37.08 114.64 37.08L114.64 37.08Q118 37.08 118.72 39.16L118.72 39.16Q120.16 43.48 121.44 47.32Q122.72 51.16 123.92 54.72Q125.12 58.28 126.24 61.72Q127.36 65.16 128.48 68.84L128.48 68.84L128.80 68.84Q129.92 63.48 131.04 58.32Q132.16 53.16 133.20 47.92Q134.24 42.68 135.20 37.28Q136.16 31.88 137.04 25.88L137.04 25.88Q138.16 25.32 139.76 25.32L139.76 25.32Q141.28 25.32 142.16 26.00Q143.04 26.68 143.04 28.04L143.04 28.04Q143.04 29.56 142.60 32.68Q142.16 35.80 141.40 39.84Q140.64 43.88 139.64 48.56Q138.64 53.24 137.52 57.76Q136.40 62.28 135.28 66.44Q134.16 70.60 133.12 73.56L133.12 73.56Q132.40 73.96 131.28 74.32Q130.16 74.68 128.72 74.68L128.72 74.68Q126.96 74.68 125.76 74.12Q124.56 73.56 124.16 72.60L124.16 72.60Q123.28 70.52 122.16 67.36Q121.04 64.20 119.80 60.40Q118.56 56.60 117.28 52.48Q116 48.36 114.80 44.28L114.80 44.28Q113.60 48.28 112.32 52.52Q111.04 56.76 109.80 60.72Q108.56 64.68 107.36 68.04Q106.16 71.40 105.20 73.64L105.20 73.64Q104.56 74.04 103.44 74.36Q102.32 74.68 100.88 74.68L100.88 74.68Q99.04 74.68 97.92 74.08Q96.80 73.48 96.40 72.60L96.40 72.60Q95.68 70.92 94.76 67.80Q93.84 64.68 92.84 60.72Q91.84 56.76 90.76 52.20Q89.68 47.64 88.68 43.12Q87.68 38.60 86.84 34.40Q86 30.20 85.44 26.84L85.44 26.84Q86 26.28 86.96 25.80Q87.92 25.32 89.04 25.32L89.04 25.32Q91.84 25.32 92.40 28.28L92.40 28.28Q93.44 33.32 94.40 38.00Q95.36 42.68 96.36 47.52Q97.36 52.36 98.48 57.56Q99.60 62.76 100.96 68.84L100.96 68.84L101.28 68.84Q102.40 65.24 103.44 62.00Q104.48 58.76 105.60 55.24Q106.72 51.72 108.04 47.56Q109.36 43.40 111.04 37.88Z" fill="#fff"></path></svg>