<?xml version="1.0" standalone="no"?>
<!DOCTYPE svg PUBLIC "-//W3C//DTD SVG 20010904//EN"
 "http://www.w3.org/TR/2001/REC-SVG-20010904/DTD/svg10.dtd">
<svg version="1.0" xmlns="http://www.w3.org/2000/svg"
 width="2004.000000pt" height="2004.000000pt" viewBox="0 0 2004.000000 2004.000000"
 preserveAspectRatio="xMidYMid meet">

<g transform="translate(0.000000,2004.000000) scale(0.100000,-0.100000)"
fill="#000000" stroke="none">
<path d="M9645 20023 c-2160 -86 -4188 -839 -5865 -2178 -1260 -1005 -2262
-2303 -2914 -3773 -229 -516 -431 -1107 -566 -1657 -385 -1565 -385 -3223 0
-4790 391 -1591 1159 -3043 2269 -4290 259 -291 702 -719 1029 -994 2021
-1696 4624 -2517 7277 -2296 2124 178 4117 1027 5753 2453 215 187 727 699
914 914 1068 1225 1805 2629 2193 4178 122 485 217 1059 260 1560 30 356 38
610 32 1015 -6 403 -20 634 -57 975 -297 2677 -1677 5131 -3820 6795 -1763
1368 -3945 2109 -6165 2093 -148 -1 -301 -3 -340 -5z m-4544 -5797 c148 -27
274 -93 383 -202 85 -84 138 -171 171 -279 18 -59 1356 -7604 1377 -7764 3
-24 3 -24 -352 -89 -501 -90 -580 -89 -789 14 -166 82 -304 246 -355 424 -24
84 -1376 7764 -1368 7771 4 3 169 34 367 68 198 34 367 64 375 65 35 8 120 4
191 -8z m10404 -71 c202 -35 370 -67 373 -69 4 -5 -1312 -7491 -1354 -7706
-44 -221 -202 -400 -435 -495 -139 -56 -268 -78 -459 -79 -186 0 -297 17 -440
66 -111 39 -174 76 -232 135 -29 30 -453 686 -1158 1792 -853 1338 -1110 1748
-1103 1761 16 35 556 850 562 850 14 -1 343 -510 1141 -1762 465 -729 846
-1325 847 -1324 1 1 254 1431 562 3178 308 1747 570 3205 581 3240 93 278 366
476 661 477 62 1 184 -16 454 -64z m-4818 -943 c165 -56 276 -123 384 -232 91
-92 133 -178 137 -280 3 -65 -1 -82 -25 -132 -35 -73 -696 -1167 -704 -1168
-4 0 -179 260 -390 578 -248 374 -390 596 -402 632 -69 201 140 461 472 587
114 43 176 53 311 49 108 -3 137 -7 217 -34z m273 -2557 c0 -2 -525 -809
-1167 -1792 -642 -983 -1182 -1813 -1201 -1843 -31 -51 -33 -59 -27 -115 3
-33 12 -70 20 -81 8 -12 44 -34 82 -49 l68 -28 1527 8 1528 7 230 -462 c126
-254 230 -469 230 -476 0 -12 -273 -14 -1887 -12 -1801 3 -1891 4 -1953 22
-327 93 -635 390 -779 752 -91 227 -99 456 -22 629 15 34 2214 3378 2241 3409
5 4 217 14 472 21 574 15 638 16 638 10z"/>
<path d="M14780 13494 c0 -243 -3 -232 59 -236 33 -3 35 -1 105 112 l71 115 5
-130 5 -130 40 -6 c26 -5 44 -3 52 4 6 7 63 97 127 202 126 206 127 209 44
203 l-41 -3 -69 -115 -68 -115 0 126 c0 138 -6 153 -56 147 -23 -2 -38 -21
-91 -108 -36 -58 -67 -108 -71 -112 -4 -4 -6 49 -4 117 3 138 4 136 -70 148
l-38 6 0 -225z"/>
<path d="M14784 12312 c-6 -4 -17 -18 -24 -31 -10 -20 -9 -27 8 -50 24 -32 46
-37 77 -17 30 20 33 65 7 89 -19 18 -49 22 -68 9z"/>
<path d="M14700 12045 c-24 -85 -42 -157 -39 -159 2 -2 24 -6 48 -8 l45 -3 45
152 c24 84 42 155 40 157 -2 2 -24 6 -49 10 l-45 7 -45 -156z"/>
<path d="M14350 10764 c-35 -118 -61 -216 -59 -218 2 -2 23 -6 46 -10 l42 -6
26 87 c14 49 32 106 39 127 l12 39 47 -129 c26 -71 51 -135 56 -142 4 -7 23
-15 42 -18 l35 -6 63 212 c34 117 60 215 57 218 -3 3 -25 6 -48 6 l-43 1 -34
-118 c-19 -65 -37 -114 -41 -110 -4 4 -26 62 -50 128 -24 66 -48 125 -54 131
-6 6 -25 14 -42 17 l-31 6 -63 -215z"/>
<path d="M14225 9462 c-71 -34 -115 -103 -115 -179 1 -104 106 -165 200 -114
78 41 125 143 102 220 -23 74 -111 109 -187 73z m90 -82 c4 -6 3 -29 0 -52 -8
-44 -55 -103 -77 -96 -55 19 -14 158 47 158 13 0 27 -5 30 -10z"/>
<path d="M13892 8038 c-34 -116 -60 -213 -59 -215 2 -2 25 -7 50 -12 l47 -8
21 71 c34 114 45 113 74 -6 10 -37 23 -72 29 -78 15 -12 106 -26 106 -16 0 4
-12 48 -26 97 -14 50 -24 92 -22 93 1 1 16 10 31 20 42 26 67 74 67 127 0 41
-4 51 -35 78 -20 17 -37 31 -38 31 -1 0 -40 7 -87 15 -47 8 -87 15 -90 15 -3
0 -34 -95 -68 -212z m205 90 c17 -14 16 -39 -3 -66 -11 -17 -25 -22 -56 -22
-30 0 -39 3 -35 14 3 8 11 33 18 56 11 37 15 41 38 35 14 -4 32 -11 38 -17z"/>
<path d="M13743 6659 c-34 -118 -61 -215 -60 -216 1 -1 25 -5 52 -8 l50 -7 62
213 c35 117 61 214 59 216 -2 2 -25 6 -52 9 l-49 6 -62 -213z"/>
</g>
</svg>
